# Blender v3.0.1 OBJ File: ''
# www.blender.org
mtllib hen.mtl
o chicken
v 0.005817 0.738785 -0.653441
v -0.007475 0.738762 -0.653489
v -0.004077 0.752403 -0.683609
v 0.002591 0.752415 -0.683585
v 0.000000 0.749817 -0.595783
v -0.103988 0.784852 -0.568599
v -0.088927 0.829953 -0.609041
v 0.000000 0.792928 -0.614040
v -0.035601 0.876670 -0.688215
v 0.000000 0.861929 -0.688615
v -0.042953 0.912258 -0.687249
v -0.015148 0.912734 -0.704768
v -0.010711 0.902026 -0.705059
v -0.035601 0.947845 -0.686283
v -0.010711 0.923441 -0.704478
v -0.409910 -0.072587 0.605264
v -0.289850 -0.356455 0.663852
v -0.168727 -0.061490 0.726949
v -0.238617 0.103755 0.692844
v -0.093597 0.181713 0.885205
v -0.132366 0.264206 0.793248
v 0.000000 -0.129936 0.788814
v 0.000000 0.180289 0.875889
v -0.141153 0.396982 1.064834
v -0.199620 0.452231 0.987481
v 0.000000 0.425758 1.010857
v 0.088927 0.829953 -0.609041
v 0.103988 0.784852 -0.568599
v 0.035601 0.876670 -0.688215
v 0.010711 0.902026 -0.705059
v 0.015148 0.912734 -0.704768
v 0.042953 0.912258 -0.687249
v 0.010711 0.923441 -0.704478
v 0.035601 0.947845 -0.686283
v 0.409910 -0.072587 0.605264
v 0.238617 0.103755 0.692844
v 0.168727 -0.061490 0.726949
v 0.289850 -0.356455 0.663852
v 0.132366 0.264206 0.793248
v 0.093597 0.181713 0.885205
v 0.199620 0.452231 0.987481
v 0.141153 0.396982 1.064834
v -0.073436 0.952857 -0.624341
v -0.085883 0.959026 -0.633482
v -0.090786 0.984533 -0.609595
v -0.078339 0.978364 -0.600453
v -0.113668 0.963958 -0.592322
v -0.101221 0.957789 -0.583180
v -0.108765 0.938451 -0.616209
v -0.096318 0.932283 -0.607068
v 0.073436 0.952857 -0.624341
v 0.078338 0.978364 -0.600453
v 0.090786 0.984533 -0.609595
v 0.085883 0.959026 -0.633482
v 0.101220 0.957789 -0.583180
v 0.113667 0.963958 -0.592322
v 0.096318 0.932283 -0.607068
v 0.108765 0.938451 -0.616209
v -0.203329 -0.617281 0.081526
v -0.113370 -0.617281 0.029588
v -0.113370 -0.617281 -0.074288
v -0.203329 -0.617281 -0.126226
v -0.293288 -0.617281 -0.074288
v -0.293288 -0.617281 0.029588
v -0.405471 -1.145788 -0.199679
v -0.391858 -1.145954 -0.229026
v -0.392054 -1.166651 -0.229528
v -0.405892 -1.166816 -0.199699
v -0.278905 -1.146009 -0.295452
v -0.254125 -1.146009 -0.294257
v -0.253906 -1.166595 -0.294735
v -0.279099 -1.166595 -0.295950
v -0.145665 -1.145954 -0.217165
v -0.133602 -1.145788 -0.186580
v -0.133181 -1.166816 -0.186558
v -0.145443 -1.166651 -0.217647
v -0.272012 -1.138338 0.090411
v -0.290367 -1.138338 0.089513
v -0.290700 -1.159589 0.090001
v -0.271691 -1.159602 0.090931
v -0.330628 -1.122844 -0.056634
v -0.299506 -1.123121 -0.105820
v -0.300076 -1.167499 -0.106893
v -0.242241 -1.123121 -0.103796
v -0.241597 -1.167499 -0.104826
v -0.214666 -1.122844 -0.052536
v -0.253486 -1.090914 -0.006140
v -0.295377 -1.090914 -0.008189
v -0.295849 -1.167776 -0.004353
v -0.253069 -1.167776 -0.002261
v 0.203329 -0.617281 0.081526
v 0.293288 -0.617281 0.029588
v 0.293288 -0.617281 -0.074288
v 0.203329 -0.617281 -0.126226
v 0.113370 -0.617281 -0.074288
v 0.113370 -0.617281 0.029588
v 0.405471 -1.145788 -0.199679
v 0.405892 -1.166816 -0.199699
v 0.392054 -1.166651 -0.229528
v 0.391858 -1.145954 -0.229026
v 0.278905 -1.146009 -0.295452
v 0.279099 -1.166595 -0.295950
v 0.253906 -1.166595 -0.294735
v 0.254125 -1.146009 -0.294257
v 0.145665 -1.145954 -0.217165
v 0.145443 -1.166651 -0.217647
v 0.133181 -1.166816 -0.186558
v 0.133602 -1.145788 -0.186580
v 0.272012 -1.138338 0.090411
v 0.271691 -1.159602 0.090931
v 0.290700 -1.159589 0.090001
v 0.290367 -1.138338 0.089513
v 0.330628 -1.122844 -0.056634
v 0.299506 -1.123121 -0.105820
v 0.300076 -1.167499 -0.106893
v 0.242241 -1.123121 -0.103796
v 0.241597 -1.167499 -0.104826
v 0.214666 -1.122844 -0.052536
v 0.253486 -1.090914 -0.006140
v 0.295377 -1.090914 -0.008189
v 0.295849 -1.167776 -0.004353
v 0.253069 -1.167776 -0.002261
v 0.044446 0.912587 -0.689621
v 0.000000 0.935248 -0.693080
v -0.044446 0.912587 -0.689621
v -0.039896 0.875921 -0.684024
v 0.039896 0.875921 -0.684024
v 0.008046 0.867691 -0.797585
v 0.007223 0.860119 -0.796429
v 0.000000 0.859544 -0.803728
v -0.007223 0.860119 -0.796429
v -0.008046 0.867691 -0.797585
v 0.000000 0.872371 -0.798300
v 0.013662 0.893742 -0.742552
v -0.013662 0.893742 -0.742552
v -0.006853 0.960914 -0.753041
v 0.006853 0.960914 -0.753041
v 0.006853 1.120604 -0.544122
v -0.006853 1.120604 -0.544122
v -0.013662 1.072408 -0.514152
v 0.013662 1.072408 -0.514152
v -0.007117 0.811711 -0.697617
v 0.007117 0.811711 -0.697617
v -0.014188 0.777708 -0.607117
v 0.014188 0.777708 -0.607117
v -0.010675 0.871907 -0.694576
v 0.011468 0.871907 -0.694576
v -0.021673 0.837297 -0.575919
v 0.022467 0.837297 -0.575919
v -0.349604 0.208029 -0.050984
v 0.000000 0.348118 -0.014308
v 0.000000 0.413730 -0.103272
v -0.293929 0.294428 -0.151789
v 0.000000 -0.608468 -0.264756
v -0.349604 -0.468380 -0.228080
v -0.310926 -0.281611 -0.386053
v 0.000000 -0.400913 -0.434571
v -0.494414 -0.130175 -0.139532
v -0.439716 0.006408 -0.268921
v 0.000000 0.436538 -0.118975
v -0.252392 0.343451 -0.204974
v -0.305958 -0.106010 -0.620214
v 0.000000 -0.199097 -0.706213
v -0.405527 0.118720 -0.412594
v -0.235374 0.393806 -0.220910
v 0.000000 0.450853 -0.134223
v 0.000000 0.460347 -0.144367
v -0.196646 0.433963 -0.221429
v 0.000000 0.061308 -0.726161
v -0.258408 0.118355 -0.639474
v -0.196646 0.306564 -0.593514
v 0.000000 0.280179 -0.670575
v -0.365444 0.256081 -0.430192
v -0.278099 0.370264 -0.407471
v 0.000000 0.581727 -0.182694
v -0.151927 0.580914 -0.245619
v -0.151927 0.576986 -0.549448
v 0.000000 0.576172 -0.612373
v -0.214858 0.578950 -0.397534
v 0.000000 0.880282 -0.282429
v -0.112151 0.857276 -0.328629
v -0.112151 0.746192 -0.551699
v 0.000000 0.723185 -0.597898
v -0.158605 0.801734 -0.440164
v 0.000000 0.989051 -0.410157
v -0.103988 0.954016 -0.437341
v -0.147061 0.869434 -0.502970
v 0.000000 1.045749 -0.579906
v -0.088927 1.008724 -0.584904
v -0.125762 0.919339 -0.596973
v 0.000000 0.962587 -0.685882
v 0.000000 0.927876 -0.704357
v 0.000000 0.897591 -0.705179
v -0.556079 -0.238308 -0.014662
v -0.393208 0.153491 0.018598
v -0.365857 -0.714276 -0.047923
v 0.000000 -0.792394 -0.061699
v 0.000000 0.315779 0.032374
v -0.556079 -0.255569 0.188669
v -0.393208 0.136380 0.157235
v -0.365857 -0.731687 0.220102
v 0.000000 -0.809869 0.233124
v 0.000000 0.298731 0.144214
v -0.505834 -0.154847 0.457102
v -0.357678 0.195448 0.384802
v -0.357678 -0.505142 0.529401
v 0.000000 -0.650238 0.559349
v 0.000000 0.340545 0.354854
v -0.289850 0.211279 0.546674
v 0.000000 -0.474035 0.688121
v 0.000000 0.328861 0.522406
v -0.168727 0.269000 0.658738
v 0.000000 0.337446 0.644611
v -0.093597 0.346698 0.749028
v 0.000000 0.380867 0.730711
v -0.141152 0.507479 0.957865
v 0.000000 0.466620 0.995333
v 0.000000 0.530364 0.945597
v 0.349604 0.208029 -0.050984
v 0.293929 0.294428 -0.151789
v 0.310926 -0.281611 -0.386053
v 0.349604 -0.468380 -0.228080
v 0.439716 0.006408 -0.268921
v 0.494414 -0.130175 -0.139532
v 0.252392 0.343451 -0.204974
v 0.305958 -0.106010 -0.620214
v 0.405527 0.118720 -0.412594
v 0.235374 0.393806 -0.220910
v 0.196646 0.433963 -0.221429
v 0.196646 0.306564 -0.593514
v 0.258408 0.118355 -0.639474
v 0.278099 0.370264 -0.407471
v 0.365444 0.256081 -0.430192
v 0.151927 0.580914 -0.245619
v 0.151927 0.576986 -0.549448
v 0.214858 0.578950 -0.397534
v 0.112151 0.857276 -0.328629
v 0.112151 0.746192 -0.551699
v 0.158605 0.801734 -0.440164
v 0.103988 0.954016 -0.437341
v 0.147061 0.869434 -0.502970
v 0.088927 1.008724 -0.584904
v 0.125762 0.919339 -0.596973
v 0.393208 0.153491 0.018598
v 0.556079 -0.238308 -0.014662
v 0.365857 -0.714276 -0.047923
v 0.393208 0.136380 0.157235
v 0.556079 -0.255569 0.188669
v 0.365857 -0.731687 0.220102
v 0.357678 0.195448 0.384802
v 0.505834 -0.154847 0.457102
v 0.357678 -0.505142 0.529401
v 0.289850 0.211279 0.546674
v 0.168727 0.269000 0.658738
v 0.093597 0.346698 0.749028
v 0.141152 0.507479 0.957865
v -0.223474 -0.839517 0.022693
v -0.184466 -0.839517 0.000171
v -0.184466 -0.839517 -0.044871
v -0.223474 -0.839517 -0.067393
v -0.262482 -0.839517 -0.044871
v -0.262482 -0.839517 0.000171
v -0.331858 -1.167776 -0.056678
v -0.213436 -1.167776 -0.052492
v -0.250271 -0.850316 -0.009824
v -0.223474 -0.850316 0.005648
v -0.250271 -0.850316 -0.040767
v -0.223474 -0.850316 -0.056238
v -0.196677 -0.850316 -0.040767
v -0.196677 -0.850316 -0.009824
v -0.297362 -1.055444 -0.040359
v -0.272696 -1.055444 -0.026118
v -0.297362 -1.055444 -0.068840
v -0.272696 -1.055444 -0.083081
v -0.248031 -1.055444 -0.068840
v -0.248031 -1.055444 -0.040359
v 0.223474 -0.839517 0.022693
v 0.184466 -0.839517 0.000171
v 0.184466 -0.839517 -0.044871
v 0.223474 -0.839517 -0.067393
v 0.262482 -0.839517 -0.044871
v 0.262482 -0.839517 0.000171
v 0.213436 -1.167776 -0.052492
v 0.331857 -1.167776 -0.056678
v 0.223474 -0.850316 0.005648
v 0.250271 -0.850316 -0.009824
v 0.250271 -0.850316 -0.040767
v 0.223474 -0.850316 -0.056238
v 0.196677 -0.850316 -0.040767
v 0.196677 -0.850316 -0.009824
v 0.272696 -1.055444 -0.026118
v 0.297362 -1.055444 -0.040359
v 0.297362 -1.055444 -0.068840
v 0.272696 -1.055444 -0.083081
v 0.248031 -1.055444 -0.068840
v 0.248031 -1.055444 -0.040359
v 0.032050 0.864750 -0.749992
v 0.035705 0.898353 -0.755121
v -0.032050 0.864750 -0.749992
v -0.035705 0.898353 -0.755121
v 0.000000 0.919121 -0.758292
v 0.023287 0.863006 -0.775508
v 0.025943 0.887422 -0.779236
v -0.023287 0.863006 -0.775508
v -0.025943 0.887422 -0.779236
v 0.000000 0.902512 -0.781539
v 0.006853 1.105931 -0.682036
v -0.006853 1.105931 -0.682036
v -0.006853 1.151430 -0.612478
v 0.006853 1.151430 -0.612478
v 0.013662 1.047568 -0.527721
v -0.013662 1.047568 -0.527721
v -0.013662 0.994819 -0.603379
v 0.013662 0.994819 -0.603379
v -0.006853 1.027227 -0.726689
v 0.006853 1.027227 -0.726689
v -0.013662 0.942070 -0.679038
v 0.013662 0.942070 -0.679038
vt 0.820264 0.207621
vt 0.820264 0.129531
vt 0.854525 0.148989
vt 0.854525 0.188162
vt 0.104841 0.545900
vt 0.121214 0.544013
vt 0.118843 0.552587
vt 0.104841 0.551120
vt 0.110447 0.566906
vt 0.104841 0.566090
vt 0.129211 0.544013
vt 0.130369 0.549261
vt 0.125990 0.548292
vt 0.125292 0.546712
vt 0.129211 0.554509
vt 0.125292 0.549870
vt 0.113123 0.639383
vt 0.094219 0.677311
vt 0.075148 0.630546
vt 0.086152 0.608468
vt 0.266401 0.868154
vt 0.275524 0.843203
vt 0.294565 0.884732
vt 0.278340 0.895461
vt 0.048582 0.636860
vt 0.048582 0.586448
vt 0.063319 0.585687
vt 0.317580 0.922404
vt 0.304258 0.929226
vt 0.048582 0.542639
vt 0.070807 0.543635
vt 0.118843 0.552587
vt 0.121214 0.544013
vt 0.110447 0.566906
vt 0.129211 0.544013
vt 0.125292 0.546712
vt 0.125990 0.548292
vt 0.130369 0.549261
vt 0.125292 0.549870
vt 0.129211 0.554509
vt 0.113123 0.639383
vt 0.086152 0.608468
vt 0.075148 0.630546
vt 0.094219 0.677311
vt 0.266401 0.868154
vt 0.278340 0.895461
vt 0.294565 0.884732
vt 0.275524 0.843203
vt 0.063319 0.585687
vt 0.304258 0.929226
vt 0.317580 0.922404
vt 0.070807 0.543635
vt 0.106280 0.070317
vt 0.152300 0.070317
vt 0.152300 0.116337
vt 0.106280 0.116337
vt 0.152300 0.162357
vt 0.106280 0.162357
vt 0.152300 0.208377
vt 0.106280 0.208377
vt 0.152300 0.254397
vt 0.106280 0.254397
vt 0.198320 0.070317
vt 0.198320 0.116337
vt 0.106280 0.070317
vt 0.106280 0.116337
vt 0.152300 0.116337
vt 0.152300 0.070317
vt 0.106280 0.162357
vt 0.152300 0.162357
vt 0.106280 0.208377
vt 0.152300 0.208377
vt 0.106280 0.254397
vt 0.152300 0.254397
vt 0.198320 0.116337
vt 0.198320 0.070317
vt 0.846096 0.908831
vt 0.830981 0.900104
vt 0.830981 0.882651
vt 0.846096 0.873924
vt 0.861211 0.882651
vt 0.861211 0.900104
vt 0.814757 0.862491
vt 0.814733 0.872886
vt 0.811671 0.873063
vt 0.811647 0.862498
vt 0.811495 0.931648
vt 0.811495 0.940424
vt 0.808450 0.940502
vt 0.808450 0.931579
vt 0.925561 0.760061
vt 0.925586 0.770894
vt 0.922475 0.770901
vt 0.922499 0.759890
vt 0.813250 0.938198
vt 0.813250 0.931697
vt 0.816393 0.931579
vt 0.816395 0.938312
vt 0.894378 0.820949
vt 0.883356 0.803528
vt 0.916065 0.759890
vt 0.920887 0.770284
vt 0.898743 0.917740
vt 0.892178 0.917360
vt 0.892304 0.873924
vt 0.895365 0.874102
vt 0.936275 0.941090
vt 0.915992 0.941806
vt 0.920201 0.874347
vt 0.928978 0.873924
vt 0.914619 0.941553
vt 0.908054 0.941188
vt 0.908188 0.873924
vt 0.911233 0.874094
vt 0.900116 0.874304
vt 0.906681 0.873924
vt 0.903295 0.941090
vt 0.900250 0.941266
vt 0.863073 0.804245
vt 0.853306 0.822401
vt 0.824594 0.774924
vt 0.828867 0.764091
vt 0.862584 0.874289
vt 0.869149 0.873924
vt 0.865771 0.914078
vt 0.862710 0.914249
vt 0.867056 0.838834
vt 0.881893 0.838108
vt 0.880119 0.872713
vt 0.873618 0.873031
vt 0.822874 0.794668
vt 0.811505 0.793309
vt 0.812716 0.759890
vt 0.815859 0.760063
vt 0.922333 0.836177
vt 0.933703 0.834803
vt 0.926688 0.869000
vt 0.923542 0.869184
vt 0.846096 0.908831
vt 0.861211 0.900104
vt 0.861211 0.882651
vt 0.846096 0.873924
vt 0.830981 0.882651
vt 0.830981 0.900104
vt 0.814757 0.862491
vt 0.811647 0.862498
vt 0.811671 0.873063
vt 0.814733 0.872886
vt 0.811495 0.931648
vt 0.808450 0.931579
vt 0.808450 0.940502
vt 0.811495 0.940424
vt 0.925561 0.760061
vt 0.922499 0.759890
vt 0.922475 0.770901
vt 0.925586 0.770894
vt 0.813250 0.938198
vt 0.816395 0.938312
vt 0.816393 0.931579
vt 0.813250 0.931697
vt 0.894378 0.820949
vt 0.920887 0.770284
vt 0.916065 0.759890
vt 0.883356 0.803528
vt 0.898743 0.917740
vt 0.895365 0.874102
vt 0.892304 0.873924
vt 0.892178 0.917360
vt 0.936275 0.941090
vt 0.928978 0.873924
vt 0.920201 0.874347
vt 0.915992 0.941806
vt 0.914619 0.941553
vt 0.911233 0.874094
vt 0.908188 0.873924
vt 0.908054 0.941188
vt 0.900116 0.874304
vt 0.900250 0.941266
vt 0.903295 0.941090
vt 0.906681 0.873924
vt 0.863073 0.804245
vt 0.828867 0.764091
vt 0.824594 0.774924
vt 0.853306 0.822401
vt 0.862584 0.874289
vt 0.862710 0.914249
vt 0.865771 0.914078
vt 0.869149 0.873924
vt 0.867056 0.838834
vt 0.873618 0.873031
vt 0.880119 0.872713
vt 0.881893 0.838108
vt 0.822874 0.794668
vt 0.815859 0.760063
vt 0.812716 0.759890
vt 0.811505 0.793309
vt 0.922333 0.836177
vt 0.923542 0.869184
vt 0.926688 0.869000
vt 0.933703 0.834803
vt 0.854250 0.942372
vt 0.832487 0.908199
vt 0.854250 0.874026
vt 0.889464 0.877524
vt 0.889464 0.938874
vt 0.777188 0.765500
vt 0.769915 0.765500
vt 0.770422 0.758569
vt 0.807401 0.866327
vt 0.814673 0.866327
vt 0.807907 0.873259
vt 0.800928 0.887786
vt 0.805422 0.893973
vt 0.794162 0.893973
vt 0.800928 0.900159
vt 0.820264 0.207621
vt 0.820264 0.129531
vt 0.854525 0.148989
vt 0.854525 0.188162
vt 0.780174 0.188162
vt 0.780174 0.148989
vt 0.811244 0.129531
vt 0.811244 0.207621
vt 0.877736 0.148989
vt 0.877736 0.188162
vt 0.730928 0.128624
vt 0.735035 0.104856
vt 0.788400 0.103509
vt 0.765189 0.120678
vt 0.879130 0.184632
vt 0.957220 0.184632
vt 0.957220 0.208400
vt 0.879130 0.208400
vt 0.872133 0.067498
vt 0.818767 0.066151
vt 0.814661 0.042384
vt 0.848922 0.050330
vt 0.730928 0.208528
vt 0.770102 0.208528
vt 0.770102 0.232303
vt 0.730928 0.232303
vt 0.737685 0.077305
vt 0.812082 0.079734
vt 0.879130 0.157081
vt 0.957220 0.157081
vt 0.895814 0.091273
vt 0.821418 0.093702
vt 0.390443 0.808808
vt 0.335396 0.805848
vt 0.335396 0.788981
vt 0.381677 0.788981
vt 0.384058 0.629685
vt 0.439104 0.632645
vt 0.433015 0.666764
vt 0.384058 0.666764
vt 0.136155 0.757805
vt 0.142148 0.812525
vt 0.118846 0.830815
vt 0.107243 0.783253
vt 0.148141 0.867244
vt 0.130448 0.878377
vt 0.335396 0.785337
vt 0.375136 0.778316
vt 0.432232 0.711334
vt 0.384058 0.718355
vt 0.093878 0.844995
vt 0.066722 0.805205
vt 0.121034 0.884786
vt 0.372457 0.773005
vt 0.335396 0.782264
vt 0.335396 0.780222
vt 0.366359 0.770547
vt 0.406233 0.756709
vt 0.446920 0.770171
vt 0.437196 0.800348
vt 0.406233 0.791929
vt 0.463773 0.802673
vt 0.450021 0.820674
vt 0.087970 0.865984
vt 0.117391 0.892262
vt 0.116384 0.898504
vt 0.088875 0.884293
vt 0.239902 0.605492
vt 0.208939 0.597073
vt 0.208939 0.581643
vt 0.232861 0.585494
vt 0.430155 0.842404
vt 0.406233 0.838553
vt 0.061367 0.870081
vt 0.085611 0.917026
vt 0.061995 0.913217
vt 0.109228 0.920835
vt 0.208939 0.544013
vt 0.226598 0.550109
vt 0.423892 0.866950
vt 0.406233 0.860854
vt 0.073834 0.950743
vt 0.057743 0.939520
vt 0.089926 0.961966
vt 0.177590 0.591842
vt 0.159932 0.597216
vt 0.159932 0.572135
vt 0.176305 0.570248
vt 0.422606 0.871586
vt 0.406233 0.864864
vt 0.062491 0.959839
vt 0.054219 0.945152
vt 0.070763 0.974527
vt 0.159932 0.544013
vt 0.173934 0.545480
vt 0.046698 0.965445
vt 0.046880 0.951244
vt 0.046517 0.979645
vt 0.137607 0.569402
vt 0.123605 0.575099
vt 0.123605 0.556683
vt 0.032801 0.962260
vt 0.033471 0.956695
vt 0.032131 0.967826
vt 0.123605 0.550524
vt 0.106528 0.570867
vt 0.104841 0.570621
vt 0.164091 0.798562
vt 0.160237 0.860354
vt 0.169885 0.723660
vt 0.384058 0.589159
vt 0.441664 0.591783
vt 0.397308 0.822192
vt 0.335396 0.814575
vt 0.196159 0.800562
vt 0.182225 0.860885
vt 0.212033 0.727128
vt 0.384058 0.545121
vt 0.441664 0.551658
vt 0.397308 0.843428
vt 0.335396 0.831899
vt 0.235646 0.822440
vt 0.216308 0.875333
vt 0.254985 0.769546
vt 0.106187 0.758361
vt 0.048582 0.768992
vt 0.048582 0.726359
vt 0.104899 0.706972
vt 0.391714 0.873116
vt 0.335396 0.860141
vt 0.256827 0.838668
vt 0.241155 0.881531
vt 0.272498 0.795805
vt 0.048582 0.693021
vt 0.381034 0.895786
vt 0.335396 0.885272
vt 0.257279 0.893106
vt 0.361963 0.908707
vt 0.335396 0.902587
vt 0.406233 0.719911
vt 0.454407 0.738589
vt 0.058548 0.839707
vt 0.269551 0.907290
vt 0.179981 0.553159
vt 0.206548 0.544013
vt 0.194718 0.560702
vt 0.179981 0.564599
vt 0.143145 0.553219
vt 0.150741 0.544013
vt 0.157541 0.575444
vt 0.139998 0.575444
vt 0.048582 0.532054
vt 0.080012 0.540165
vt 0.298371 0.937148
vt 0.202206 0.596539
vt 0.179981 0.599149
vt 0.390443 0.808808
vt 0.381677 0.788981
vt 0.433015 0.666764
vt 0.439104 0.632645
vt 0.136155 0.757805
vt 0.107243 0.783253
vt 0.118846 0.830815
vt 0.142148 0.812525
vt 0.130448 0.878377
vt 0.148141 0.867244
vt 0.375136 0.778316
vt 0.432232 0.711334
vt 0.066722 0.805205
vt 0.093878 0.844995
vt 0.121034 0.884786
vt 0.372457 0.773005
vt 0.366359 0.770547
vt 0.437196 0.800348
vt 0.446920 0.770171
vt 0.450021 0.820674
vt 0.463773 0.802673
vt 0.087970 0.865984
vt 0.088875 0.884293
vt 0.116384 0.898504
vt 0.117391 0.892262
vt 0.239902 0.605492
vt 0.232861 0.585494
vt 0.430155 0.842404
vt 0.061367 0.870081
vt 0.061995 0.913217
vt 0.085611 0.917026
vt 0.109228 0.920835
vt 0.226598 0.550109
vt 0.423892 0.866950
vt 0.057743 0.939520
vt 0.073834 0.950743
vt 0.089926 0.961966
vt 0.177590 0.591842
vt 0.176305 0.570248
vt 0.422606 0.871586
vt 0.054219 0.945152
vt 0.062491 0.959839
vt 0.070763 0.974527
vt 0.173934 0.545480
vt 0.046880 0.951244
vt 0.046698 0.965445
vt 0.046517 0.979645
vt 0.137607 0.569402
vt 0.033471 0.956695
vt 0.032801 0.962260
vt 0.032131 0.967826
vt 0.106528 0.570867
vt 0.160237 0.860354
vt 0.164091 0.798562
vt 0.169885 0.723660
vt 0.441664 0.591783
vt 0.397308 0.822192
vt 0.182225 0.860885
vt 0.196159 0.800562
vt 0.212033 0.727128
vt 0.441664 0.551658
vt 0.397308 0.843428
vt 0.216308 0.875333
vt 0.235646 0.822440
vt 0.254985 0.769546
vt 0.106187 0.758361
vt 0.104899 0.706972
vt 0.391714 0.873116
vt 0.241155 0.881531
vt 0.256827 0.838668
vt 0.272498 0.795805
vt 0.381034 0.895786
vt 0.257279 0.893106
vt 0.361963 0.908707
vt 0.454407 0.738589
vt 0.058548 0.839707
vt 0.269551 0.907290
vt 0.194718 0.560702
vt 0.206548 0.544013
vt 0.143145 0.553219
vt 0.150741 0.544013
vt 0.080012 0.540165
vt 0.298371 0.937148
vt 0.202206 0.596539
vt 0.172903 0.917225
vt 0.159087 0.917225
vt 0.157788 0.884352
vt 0.172903 0.884352
vt 0.139711 0.884352
vt 0.155665 0.884352
vt 0.156415 0.917225
vt 0.138962 0.917225
vt 0.108657 0.884352
vt 0.122473 0.884352
vt 0.122473 0.917225
vt 0.107358 0.917225
vt 0.136289 0.884352
vt 0.137588 0.917225
vt 0.089281 0.884352
vt 0.105235 0.884352
vt 0.105985 0.917225
vt 0.088532 0.917225
vt 0.186719 0.917225
vt 0.188018 0.884352
vt 0.770901 0.793639
vt 0.783655 0.812171
vt 0.772398 0.829957
vt 0.751686 0.829225
vt 0.741711 0.810689
vt 0.755749 0.792897
vt 0.085513 0.918119
vt 0.099329 0.926096
vt 0.095004 0.929636
vt 0.085513 0.924156
vt 0.099329 0.942049
vt 0.095004 0.940595
vt 0.085513 0.950026
vt 0.085513 0.946075
vt 0.071697 0.942049
vt 0.076022 0.940595
vt 0.071697 0.926096
vt 0.076022 0.929636
vt 0.752055 0.931579
vt 0.761546 0.931579
vt 0.760791 0.961922
vt 0.752055 0.961922
vt 0.783974 0.961922
vt 0.773015 0.961922
vt 0.763072 0.931579
vt 0.773159 0.931579
vt 0.890800 0.914278
vt 0.881309 0.914278
vt 0.881309 0.883935
vt 0.890045 0.883935
vt 0.871818 0.914278
vt 0.872573 0.883935
vt 0.796720 0.961922
vt 0.785761 0.961922
vt 0.796576 0.931579
vt 0.806664 0.931579
vt 0.742564 0.931579
vt 0.743319 0.961922
vt 0.818151 0.811826
vt 0.811505 0.811842
vt 0.928979 0.818370
vt 0.922333 0.818386
vt 0.882596 0.826714
vt 0.882596 0.816626
vt 0.870522 0.873924
vt 0.890805 0.873924
vt 0.873860 0.811582
vt 0.865124 0.816626
vt 0.865124 0.826714
vt 0.873860 0.831758
vt 0.809877 0.862827
vt 0.804976 0.873393
vt 0.764968 0.896918
vt 0.756045 0.896488
vt 0.717629 0.869184
vt 0.713286 0.858173
vt 0.762345 0.759890
vt 0.769077 0.760220
vt 0.172903 0.917225
vt 0.172903 0.884352
vt 0.157788 0.884352
vt 0.159087 0.917225
vt 0.139711 0.884352
vt 0.138962 0.917225
vt 0.156415 0.917225
vt 0.155665 0.884352
vt 0.108657 0.884352
vt 0.107358 0.917225
vt 0.122473 0.917225
vt 0.122473 0.884352
vt 0.137588 0.917225
vt 0.136289 0.884352
vt 0.089281 0.884352
vt 0.088532 0.917225
vt 0.105985 0.917225
vt 0.105235 0.884352
vt 0.186719 0.917225
vt 0.188018 0.884352
vt 0.770901 0.793639
vt 0.755749 0.792897
vt 0.741711 0.810689
vt 0.751686 0.829225
vt 0.772398 0.829957
vt 0.783655 0.812171
vt 0.085513 0.918119
vt 0.085513 0.924156
vt 0.095004 0.929636
vt 0.099329 0.926096
vt 0.095004 0.940595
vt 0.099329 0.942049
vt 0.085513 0.946075
vt 0.085513 0.950026
vt 0.076022 0.940595
vt 0.071697 0.942049
vt 0.076022 0.929636
vt 0.071697 0.926096
vt 0.752055 0.931579
vt 0.752055 0.961922
vt 0.760791 0.961922
vt 0.761546 0.931579
vt 0.783974 0.961922
vt 0.773159 0.931579
vt 0.763072 0.931579
vt 0.773015 0.961922
vt 0.890800 0.914278
vt 0.890045 0.883935
vt 0.881309 0.883935
vt 0.881309 0.914278
vt 0.872573 0.883935
vt 0.871818 0.914278
vt 0.796720 0.961922
vt 0.806664 0.931579
vt 0.796576 0.931579
vt 0.785761 0.961922
vt 0.742564 0.931579
vt 0.743319 0.961922
vt 0.811505 0.811842
vt 0.818151 0.811826
vt 0.928979 0.818370
vt 0.922333 0.818386
vt 0.882596 0.826714
vt 0.882596 0.816626
vt 0.890805 0.873924
vt 0.870522 0.873924
vt 0.873860 0.811582
vt 0.865124 0.816626
vt 0.865124 0.826714
vt 0.873860 0.831758
vt 0.804976 0.873393
vt 0.809877 0.862827
vt 0.756045 0.896488
vt 0.764968 0.896918
vt 0.713286 0.858173
vt 0.717629 0.869184
vt 0.769077 0.760220
vt 0.762345 0.759890
vt 0.803856 0.873259
vt 0.768643 0.873259
vt 0.767609 0.809746
vt 0.799881 0.809746
vt 0.842543 0.758569
vt 0.903892 0.758569
vt 0.897860 0.822081
vt 0.848575 0.822081
vt 0.806128 0.758569
vt 0.841342 0.758569
vt 0.837367 0.822081
vt 0.805095 0.822082
vt 0.958988 0.961736
vt 0.924816 0.961736
vt 0.924816 0.898224
vt 0.952268 0.898224
vt 0.890643 0.961736
vt 0.897363 0.898224
vt 0.769627 0.785549
vt 0.793076 0.785549
vt 0.891122 0.846279
vt 0.855312 0.846279
vt 0.830562 0.846279
vt 0.807113 0.846279
vt 0.924816 0.874026
vt 0.944762 0.874026
vt 0.904869 0.874026
vt 0.878771 0.866327
vt 0.867664 0.866327
vt 0.816816 0.874026
vt 0.831308 0.893973
vt 0.816816 0.913920
vt 0.873217 0.873259
vt 0.730928 0.232303
vt 0.770102 0.232303
vt 0.770102 0.257159
vt 0.730928 0.257159
vt 0.879130 0.129530
vt 0.957220 0.129530
vt 0.957220 0.157081
vt 0.879130 0.157081
vt 0.812082 0.079734
vt 0.737685 0.077305
vt 0.740336 0.049754
vt 0.813125 0.054878
vt 0.896858 0.116129
vt 0.824069 0.121253
vt 0.821418 0.093702
vt 0.895814 0.091273
vt 0.877736 0.148989
vt 0.877736 0.188162
vt 0.730928 0.128624
vt 0.735035 0.104856
vt 0.788400 0.103509
vt 0.765189 0.120678
vt 0.879130 0.184632
vt 0.957220 0.184632
vt 0.957220 0.208400
vt 0.879130 0.208400
vt 0.872133 0.067498
vt 0.818767 0.066151
vt 0.814661 0.042384
vt 0.848922 0.050330
vt 0.818870 0.129531
vt 0.818870 0.207621
vt 0.747962 0.042384
vt 0.779032 0.042384
vt 0.746081 0.188162
vt 0.746081 0.148989
vt 0.831695 0.128624
vt 0.862765 0.128624
vt 0.730928 0.208528
vt 0.770102 0.208528
vn 0.0031 -0.9111 -0.4123
vn -0.3177 -0.4871 -0.8135
vn -0.3190 -0.7008 -0.6381
vn -0.5063 -0.1057 -0.8558
vn -0.5063 0.1520 -0.8489
vn -0.4502 -0.0061 0.8929
vn -0.7909 -0.0361 0.6109
vn -0.2742 -0.3584 0.8924
vn -0.8926 -0.4158 0.1744
vn 0.2782 -0.5219 0.8064
vn 0.3177 -0.4871 -0.8135
vn 0.3190 -0.7008 -0.6381
vn 0.5063 -0.1057 -0.8558
vn 0.5063 0.1520 -0.8489
vn 0.4502 -0.0061 0.8929
vn 0.7909 -0.0361 0.6109
vn 0.2742 -0.3584 0.8924
vn 0.8926 -0.4158 0.1744
vn -0.2782 -0.5219 0.8064
vn 0.6484 0.5830 -0.4895
vn -0.1389 0.7228 0.6769
vn -0.6484 -0.5830 0.4895
vn 0.1389 -0.7228 -0.6769
vn -0.7485 0.3709 -0.5497
vn -0.6484 0.5830 -0.4895
vn 0.1389 0.7228 0.6769
vn 0.6484 -0.5830 0.4895
vn -0.1389 -0.7228 -0.6769
vn 0.7485 0.3709 -0.5497
vn 0.0000 1.0000 -0.0000
vn -0.9070 0.0187 -0.4207
vn 0.0481 0.0237 -0.9986
vn 0.9301 0.0184 -0.3668
vn -0.0488 0.0237 0.9985
vn -0.1371 0.9870 -0.0836
vn 0.7998 0.0051 -0.6002
vn 0.0047 0.9928 -0.1195
vn 0.9978 0.0148 -0.0643
vn -0.9938 0.0143 -0.1100
vn 0.1473 0.9861 -0.0767
vn -0.7609 0.0049 -0.6488
vn -0.0214 0.8990 0.4375
vn -0.9984 0.0106 0.0550
vn 0.9806 0.0161 0.1953
vn 0.9070 0.0187 -0.4207
vn -0.0481 0.0237 -0.9986
vn -0.9301 0.0184 -0.3668
vn 0.0488 0.0237 0.9985
vn 0.1371 0.9870 -0.0836
vn -0.7999 0.0051 -0.6002
vn -0.0047 0.9928 -0.1195
vn -0.9978 0.0148 -0.0643
vn 0.9938 0.0143 -0.1100
vn -0.1473 0.9861 -0.0767
vn 0.7609 0.0049 -0.6488
vn 0.0214 0.8990 0.4375
vn 0.9984 0.0106 0.0550
vn -0.9806 0.0161 0.1953
vn -0.0000 0.1509 0.9885
vn 0.7061 -0.1813 -0.6845
vn -0.7061 -0.1813 -0.6845
vn -0.2948 0.3724 -0.8800
vn 0.2948 0.3724 -0.8800
vn 0.0000 -0.1543 -0.9880
vn 0.0000 0.5281 0.8492
vn 0.0013 -0.2301 -0.9732
vn 0.0004 -0.0486 -0.9988
vn 0.0004 -0.0471 -0.9989
vn -0.9919 -0.0620 -0.1106
vn -0.9924 -0.0614 -0.1071
vn -0.9923 -0.0615 -0.1075
vn -0.0001 -0.5648 0.8252
vn -0.0001 -0.5665 0.8240
vn -0.0003 -0.7657 0.6432
vn 0.9908 -0.0767 -0.1118
vn 0.9907 -0.0772 -0.1121
vn 0.9886 -0.0903 -0.1201
vn 0.0000 0.0505 -0.9987
vn -0.9925 -0.0612 -0.1058
vn 0.0000 -0.4638 0.8859
vn 0.9913 -0.0732 -0.1096
vn -0.3683 0.7932 0.4850
vn -0.3724 0.7857 0.4939
vn -0.3908 0.7644 0.5128
vn -0.3845 0.7692 0.5104
vn -0.3256 -0.5853 -0.7425
vn -0.3564 -0.6765 -0.6445
vn -0.3533 -0.6670 -0.6560
vn -0.8257 -0.2437 -0.5088
vn -0.8314 -0.2290 -0.5062
vn -0.8999 -0.2252 -0.3735
vn -0.8851 -0.2193 -0.4104
vn -0.9045 0.4133 -0.1049
vn -0.9052 0.4208 -0.0589
vn -0.8888 0.4577 0.0245
vn -0.8961 0.4438 0.0042
vn -0.4255 0.6461 0.6337
vn -0.4235 0.6852 0.5926
vn -0.3769 -0.4942 -0.7834
vn -0.3788 -0.5216 -0.7645
vn -0.9120 -0.0709 -0.4041
vn -0.9226 -0.1268 -0.3643
vn -0.8934 0.4097 0.1842
vn -0.8874 0.4461 0.1167
vn -0.4154 0.4803 0.7725
vn -0.4100 0.4790 0.7762
vn -0.3906 0.4741 0.7890
vn -0.2996 0.0624 -0.9520
vn -0.2983 0.0836 -0.9508
vn -0.2812 0.2722 -0.9202
vn -0.7973 0.2427 -0.5527
vn -0.7642 0.3199 -0.5600
vn -0.6835 0.4649 -0.5628
vn -0.8781 0.3874 0.2810
vn -0.8396 0.5067 0.1955
vn -0.7776 0.6208 0.0997
vn -0.3769 0.2693 0.8862
vn -0.3830 0.2895 0.8772
vn -0.3830 0.2896 0.8772
vn -0.3526 0.1932 -0.9156
vn -0.3586 0.1650 -0.9188
vn -0.3592 0.1624 -0.9190
vn -0.8737 0.2443 -0.4207
vn -0.8819 0.2196 -0.4172
vn -0.8830 0.2162 -0.4166
vn -0.8999 0.2864 0.3288
vn -0.9056 0.2716 0.3257
vn -0.9059 0.2710 0.3255
vn -0.3977 0.4265 0.8123
vn -0.3978 0.4283 0.8114
vn -0.3731 0.0502 -0.9264
vn -0.3733 0.0545 -0.9261
vn -0.9065 0.1170 -0.4057
vn -0.9060 0.1198 -0.4059
vn -0.9156 0.2749 0.2935
vn -0.9157 0.2754 0.2927
vn -0.3904 0.7974 0.4602
vn -0.3903 0.7994 0.4567
vn -0.3563 -0.1638 -0.9199
vn -0.9054 -0.1694 -0.3894
vn -0.9067 -0.1645 -0.3883
vn -0.9225 0.3636 0.1298
vn -0.9224 0.3645 0.1277
vn -0.3840 0.9229 0.0285
vn -0.3843 0.9223 0.0407
vn -0.8336 -0.2164 -0.5082
vn -0.8413 -0.2181 -0.4947
vn -0.8960 0.3961 -0.2008
vn -0.9011 0.3982 -0.1715
vn -0.2863 0.7508 -0.5952
vn -0.7417 -0.1953 -0.6416
vn -0.7161 0.3180 -0.6214
vn -0.1816 0.4620 -0.8681
vn -0.0000 0.4699 -0.8827
vn 0.0000 -0.4213 -0.9069
vn -0.1816 -0.4143 -0.8919
vn -0.9206 0.3903 -0.0095
vn -0.9171 0.3955 -0.0508
vn -0.9222 -0.3495 -0.1653
vn -0.9052 -0.3283 -0.2699
vn -0.2465 -0.6397 -0.7280
vn 0.0000 -0.6601 -0.7512
vn -0.3788 0.9021 0.2066
vn -0.3777 0.8901 0.2552
vn -0.9213 0.3873 0.0356
vn -0.9212 0.3874 0.0355
vn -0.9265 -0.3579 0.1160
vn -0.9240 -0.3546 0.1431
vn -0.2086 -0.9761 -0.0605
vn -0.0000 -0.9981 -0.0619
vn -0.0000 -0.9599 0.2803
vn -0.2622 -0.9253 0.2740
vn -0.3847 0.9211 -0.0598
vn -0.3847 0.9208 -0.0644
vn -0.9085 0.4029 0.1108
vn -0.9013 0.4078 0.1460
vn -0.8819 -0.3075 0.3574
vn -0.8692 -0.2923 0.3988
vn -0.2897 -0.7547 0.5887
vn -0.2908 -0.7401 0.6064
vn -0.3805 0.9192 -0.1017
vn -0.3801 0.9208 -0.0876
vn -0.8315 0.4254 0.3573
vn -0.7960 0.4255 0.4305
vn -0.7683 -0.1994 0.6082
vn -0.2934 -0.5641 0.7718
vn -0.3726 0.9270 0.0420
vn -0.3741 0.9271 0.0232
vn -0.7162 0.4182 0.5587
vn -0.2566 -0.1940 0.9468
vn 0.0000 -0.2008 0.9796
vn -0.3823 0.9165 -0.1175
vn -0.3839 0.9052 -0.1822
vn -0.8560 0.4537 0.2476
vn -0.9031 0.4178 -0.0993
vn -0.8885 0.3856 -0.2487
vn -0.3064 0.7936 -0.5256
vn -0.2991 0.7890 -0.5367
vn -0.0519 0.5716 0.8189
vn -0.0168 0.6473 0.7621
vn -0.0000 0.6370 0.7709
vn 0.0000 0.5724 0.8200
vn -0.0000 0.6976 0.7165
vn 0.0086 0.6976 0.7165
vn -0.8118 0.3068 -0.4968
vn -0.2625 0.7642 -0.5891
vn 0.3683 0.7932 0.4850
vn 0.3845 0.7692 0.5104
vn 0.3908 0.7644 0.5128
vn 0.3724 0.7857 0.4939
vn 0.3256 -0.5853 -0.7425
vn 0.3533 -0.6670 -0.6560
vn 0.3564 -0.6765 -0.6445
vn 0.8257 -0.2437 -0.5088
vn 0.8851 -0.2193 -0.4104
vn 0.8999 -0.2252 -0.3735
vn 0.8314 -0.2290 -0.5062
vn 0.9045 0.4133 -0.1049
vn 0.8961 0.4438 0.0042
vn 0.8888 0.4577 0.0245
vn 0.9052 0.4208 -0.0589
vn 0.4235 0.6852 0.5926
vn 0.4255 0.6461 0.6337
vn 0.3788 -0.5216 -0.7645
vn 0.3769 -0.4942 -0.7834
vn 0.9226 -0.1268 -0.3643
vn 0.9120 -0.0709 -0.4041
vn 0.8874 0.4461 0.1167
vn 0.8934 0.4097 0.1842
vn 0.4154 0.4803 0.7725
vn 0.3906 0.4741 0.7890
vn 0.4100 0.4790 0.7762
vn 0.2996 0.0624 -0.9520
vn 0.2812 0.2722 -0.9202
vn 0.2983 0.0836 -0.9508
vn 0.7973 0.2427 -0.5527
vn 0.6835 0.4649 -0.5628
vn 0.7642 0.3199 -0.5600
vn 0.8781 0.3874 0.2810
vn 0.7776 0.6208 0.0997
vn 0.8396 0.5067 0.1955
vn 0.3769 0.2693 0.8862
vn 0.3830 0.2896 0.8772
vn 0.3830 0.2895 0.8772
vn 0.3526 0.1932 -0.9156
vn 0.3592 0.1624 -0.9190
vn 0.3586 0.1650 -0.9188
vn 0.8737 0.2443 -0.4207
vn 0.8830 0.2162 -0.4166
vn 0.8819 0.2196 -0.4171
vn 0.8999 0.2864 0.3288
vn 0.9058 0.2711 0.3256
vn 0.9056 0.2716 0.3257
vn 0.3978 0.4283 0.8114
vn 0.3977 0.4265 0.8123
vn 0.3733 0.0545 -0.9261
vn 0.3731 0.0502 -0.9264
vn 0.9060 0.1198 -0.4059
vn 0.9065 0.1170 -0.4057
vn 0.9157 0.2754 0.2927
vn 0.9156 0.2749 0.2935
vn 0.3903 0.7994 0.4567
vn 0.3904 0.7974 0.4602
vn 0.3563 -0.1638 -0.9199
vn 0.9067 -0.1645 -0.3883
vn 0.9054 -0.1694 -0.3894
vn 0.9224 0.3645 0.1277
vn 0.9225 0.3636 0.1298
vn 0.3843 0.9223 0.0407
vn 0.3840 0.9229 0.0285
vn 0.8413 -0.2181 -0.4947
vn 0.8336 -0.2164 -0.5082
vn 0.9011 0.3982 -0.1715
vn 0.8960 0.3961 -0.2008
vn 0.2863 0.7508 -0.5952
vn 0.7417 -0.1953 -0.6416
vn 0.7161 0.3180 -0.6214
vn 0.1816 0.4620 -0.8681
vn 0.1816 -0.4143 -0.8919
vn 0.9171 0.3955 -0.0508
vn 0.9206 0.3903 -0.0095
vn 0.9052 -0.3283 -0.2699
vn 0.9222 -0.3495 -0.1653
vn 0.2465 -0.6397 -0.7280
vn 0.3777 0.8901 0.2552
vn 0.3788 0.9021 0.2066
vn 0.9212 0.3874 0.0355
vn 0.9213 0.3873 0.0356
vn 0.9240 -0.3546 0.1431
vn 0.9265 -0.3579 0.1160
vn 0.2086 -0.9761 -0.0605
vn 0.2622 -0.9253 0.2740
vn 0.3847 0.9208 -0.0644
vn 0.3847 0.9211 -0.0598
vn 0.9013 0.4078 0.1460
vn 0.9085 0.4029 0.1108
vn 0.8692 -0.2923 0.3988
vn 0.8819 -0.3075 0.3574
vn 0.2908 -0.7401 0.6064
vn 0.2897 -0.7547 0.5887
vn 0.3801 0.9208 -0.0876
vn 0.3805 0.9192 -0.1017
vn 0.7960 0.4255 0.4305
vn 0.8315 0.4254 0.3573
vn 0.7683 -0.1994 0.6082
vn 0.2934 -0.5641 0.7718
vn 0.3741 0.9271 0.0232
vn 0.3726 0.9270 0.0420
vn 0.7162 0.4182 0.5587
vn 0.2566 -0.1940 0.9468
vn 0.3839 0.9052 -0.1822
vn 0.3823 0.9165 -0.1175
vn 0.8560 0.4537 0.2476
vn 0.8885 0.3856 -0.2487
vn 0.9031 0.4178 -0.0993
vn 0.2991 0.7890 -0.5367
vn 0.3064 0.7936 -0.5256
vn 0.0519 0.5716 0.8189
vn 0.0167 0.6473 0.7620
vn -0.0086 0.6976 0.7165
vn 0.8118 0.3068 -0.4968
vn 0.2625 0.7642 -0.5891
vn 0.4798 -0.2814 0.8310
vn 0.4797 -0.2819 0.8309
vn 0.4822 -0.2648 0.8351
vn 0.9491 -0.3149 0.0000
vn 0.9481 -0.3179 -0.0000
vn 0.9524 -0.3047 0.0000
vn 0.4810 -0.2727 -0.8332
vn 0.4808 -0.2748 -0.8327
vn 0.4822 -0.2648 -0.8351
vn -0.4907 -0.1920 -0.8499
vn -0.4908 -0.1915 -0.8500
vn -0.4917 -0.1809 -0.8517
vn -0.9878 -0.1555 0.0000
vn -0.9885 -0.1514 0.0000
vn -0.9905 -0.1373 0.0000
vn -0.4897 -0.2022 0.8481
vn -0.4901 -0.1984 0.8488
vn -0.4918 -0.1809 0.8517
vn -0.0007 -0.9999 0.0134
vn -0.0003 -1.0000 -0.0040
vn -0.0003 -1.0000 -0.0045
vn 0.0007 -1.0000 -0.0045
vn 0.0006 -1.0000 -0.0040
vn -0.0007 -0.9999 0.0132
vn -0.2952 -0.8071 0.5113
vn -0.6625 -0.7491 0.0000
vn -0.3726 -0.6667 -0.6454
vn 0.3726 -0.6667 -0.6454
vn 0.6625 -0.7491 0.0000
vn 0.2952 -0.8071 0.5113
vn -0.5000 -0.0141 0.8659
vn -0.6189 0.1480 0.7714
vn -0.5694 0.0762 0.8185
vn -0.9746 0.2237 0.0000
vn -0.9469 0.2866 -0.1456
vn -0.9588 0.2666 -0.0979
vn -0.4869 0.2272 -0.8434
vn -0.3646 0.2824 -0.8873
vn -0.3845 0.2740 -0.8815
vn 0.5000 -0.0067 -0.8660
vn 0.6006 0.1299 -0.7890
vn 0.5963 0.1236 -0.7932
vn 0.9701 -0.2429 0.0000
vn 0.9934 -0.0158 0.1132
vn 0.9938 -0.0684 0.0877
vn 0.4846 -0.2463 0.8394
vn 0.4292 -0.0423 0.9022
vn 0.4610 -0.1501 0.8746
vn -0.8035 0.2263 0.5506
vn -0.8519 0.0595 0.5203
vn -0.8617 0.0249 0.5068
vn -0.8205 0.0292 0.5709
vn 0.8397 0.0822 0.5367
vn 0.8512 0.1983 0.4859
vn 0.7809 0.0307 0.6239
vn 0.8270 0.0257 0.5616
vn -0.8643 0.3636 -0.3476
vn -0.1374 0.3640 -0.9212
vn 0.7278 0.3629 -0.5820
vn 0.1510 0.5459 0.8241
vn -0.0011 -1.0000 -0.0061
vn -0.8875 0.0218 0.4602
vn 0.0002 -1.0000 -0.0048
vn 0.8574 0.0220 0.5141
vn 0.0017 -1.0000 -0.0061
vn -0.0044 -0.9962 0.0866
vn -0.4798 -0.2814 0.8310
vn -0.4822 -0.2648 0.8351
vn -0.4797 -0.2819 0.8309
vn -0.9491 -0.3149 0.0000
vn -0.9524 -0.3047 0.0000
vn -0.9481 -0.3179 -0.0000
vn -0.4810 -0.2727 -0.8332
vn -0.4822 -0.2648 -0.8351
vn -0.4808 -0.2748 -0.8327
vn 0.4907 -0.1920 -0.8499
vn 0.4917 -0.1809 -0.8517
vn 0.4908 -0.1915 -0.8500
vn 0.9878 -0.1555 0.0000
vn 0.9905 -0.1373 0.0000
vn 0.9885 -0.1514 0.0000
vn 0.4897 -0.2022 0.8481
vn 0.4918 -0.1809 0.8517
vn 0.4901 -0.1984 0.8488
vn 0.0007 -0.9999 0.0134
vn 0.0007 -0.9999 0.0132
vn -0.0006 -1.0000 -0.0040
vn -0.0007 -1.0000 -0.0045
vn 0.0003 -1.0000 -0.0045
vn 0.0003 -1.0000 -0.0040
vn 0.5000 -0.0141 0.8659
vn 0.5694 0.0762 0.8185
vn 0.6189 0.1480 0.7714
vn 0.9746 0.2237 0.0000
vn 0.9588 0.2666 -0.0979
vn 0.9469 0.2866 -0.1456
vn 0.4869 0.2272 -0.8434
vn 0.3845 0.2740 -0.8815
vn 0.3646 0.2824 -0.8873
vn -0.5000 -0.0067 -0.8660
vn -0.5963 0.1236 -0.7932
vn -0.6006 0.1299 -0.7890
vn -0.9701 -0.2429 0.0000
vn -0.9938 -0.0684 0.0877
vn -0.9934 -0.0158 0.1132
vn -0.4846 -0.2463 0.8394
vn -0.4610 -0.1501 0.8746
vn -0.4292 -0.0423 0.9022
vn 0.8035 0.2263 0.5506
vn 0.8205 0.0292 0.5709
vn 0.8617 0.0249 0.5068
vn 0.8519 0.0595 0.5203
vn -0.8397 0.0822 0.5367
vn -0.8270 0.0257 0.5616
vn -0.7809 0.0307 0.6239
vn -0.8512 0.1983 0.4859
vn 0.8643 0.3636 -0.3476
vn 0.1374 0.3640 -0.9212
vn -0.7278 0.3629 -0.5820
vn -0.1510 0.5459 0.8241
vn 0.0011 -1.0000 -0.0061
vn 0.8875 0.0218 0.4602
vn -0.0002 -1.0000 -0.0048
vn -0.8574 0.0220 0.5141
vn -0.0017 -1.0000 -0.0061
vn 0.0044 -0.9962 0.0866
vn 0.9865 -0.1303 -0.0993
vn 0.9789 -0.1357 -0.1525
vn 0.9805 -0.1348 -0.1433
vn 0.0000 -0.9860 0.1670
vn 0.0000 -0.9888 0.1495
vn -0.9865 -0.1303 -0.0993
vn -0.9805 -0.1348 -0.1433
vn -0.9789 -0.1357 -0.1525
vn -0.4783 0.8478 -0.2289
vn -0.4794 0.8277 -0.2918
vn -0.4794 0.8273 -0.2929
vn 0.4783 0.8478 -0.2289
vn 0.4794 0.8273 -0.2929
vn 0.4794 0.8277 -0.2918
vn 0.8967 -0.1605 -0.4125
vn 0.9140 -0.1566 -0.3744
vn 0.0000 -0.9967 0.0806
vn -0.9140 -0.1566 -0.3744
vn -0.8967 -0.1605 -0.4125
vn -0.4367 0.6571 -0.6144
vn -0.4322 0.6471 -0.6280
vn 0.4322 0.6471 -0.6280
vn 0.4368 0.6571 -0.6144
vn 0.7924 -0.1754 -0.5843
vn -0.0000 -0.9908 0.1350
vn -0.7924 -0.1754 -0.5843
vn -0.3390 0.4572 -0.8222
vn 0.3390 0.4572 -0.8222
vn -0.0000 -0.9909 0.1350
vn 0.0000 -0.9969 0.0784
vn 0.0000 0.6769 -0.7361
vn -0.0000 0.9944 -0.1058
vn 0.0000 -0.7546 0.6562
vn 0.0000 -0.8203 0.5719
vn -0.9985 0.0413 -0.0348
vn -0.9985 0.0413 -0.0360
vn -0.9985 0.0505 -0.0225
vn -0.9986 0.0452 -0.0260
vn 0.9986 0.0452 -0.0260
vn 0.9985 0.0505 -0.0225
vn 0.9985 0.0413 -0.0360
vn 0.9985 0.0413 -0.0348
vn 0.0000 0.3693 -0.9293
vn 0.0000 0.4397 -0.8981
vn -0.9953 0.0598 -0.0763
vn -0.9973 0.0478 -0.0563
vn -0.9978 0.0441 -0.0501
vn 0.0000 -0.8092 0.5876
vn 0.0000 -0.7958 0.6055
vn 0.9978 0.0441 -0.0501
vn 0.9973 0.0478 -0.0563
vn 0.9953 0.0598 -0.0763
vn 0.0000 -0.4794 0.8776
vn -0.9955 0.0943 0.0069
vn 0.0000 0.9116 0.4111
vn 0.9955 0.0943 0.0069
usemtl lambert2SG
s off
f 1/1/1 2/2/1 3/3/1 4/4/1
f 5/5/2 6/6/2 7/7/2 8/8/2
f 8/8/3 7/7/3 9/9/3 10/10/3
f 9/11/4 11/12/4 12/13/4 13/14/4
f 11/12/5 14/15/5 15/16/5 12/13/5
f 16/17/6 17/18/6 18/19/6 19/20/6
f 19/21/7 18/22/7 20/23/7 21/24/7
f 18/19/8 22/25/8 23/26/8 20/27/8
f 21/24/9 20/23/9 24/28/9 25/29/9
f 20/27/10 23/26/10 26/30/10 24/31/10
f 5/5/11 8/8/11 27/32/11 28/33/11
f 8/8/12 10/10/12 29/34/12 27/32/12
f 29/35/13 30/36/13 31/37/13 32/38/13
f 32/38/14 31/37/14 33/39/14 34/40/14
f 35/41/15 36/42/15 37/43/15 38/44/15
f 36/45/16 39/46/16 40/47/16 37/48/16
f 37/43/17 40/49/17 23/26/17 22/25/17
f 39/46/18 41/50/18 42/51/18 40/47/18
f 40/49/19 42/52/19 26/30/19 23/26/19
f 43/53/20 44/54/20 45/55/20 46/56/20
f 46/56/21 45/55/21 47/57/21 48/58/21
f 48/58/22 47/57/22 49/59/22 50/60/22
f 50/60/23 49/59/23 44/61/23 43/62/23
f 44/54/24 49/63/24 47/64/24 45/55/24
f 51/65/25 52/66/25 53/67/25 54/68/25
f 52/66/26 55/69/26 56/70/26 53/67/26
f 55/69/27 57/71/27 58/72/27 56/70/27
f 57/71/28 51/73/28 54/74/28 58/72/28
f 54/68/29 53/67/29 56/75/29 58/76/29
f 59/77/30 60/78/30 61/79/30 62/80/30 63/81/30 64/82/30
f 65/83/31 66/84/31 67/85/31 68/86/31
f 69/87/32 70/88/32 71/89/32 72/90/32
f 73/91/33 74/92/33 75/93/33 76/94/33
f 77/95/34 78/96/34 79/97/34 80/98/34
f 81/99/35 82/100/35 66/101/35 65/102/35
f 82/103/36 83/104/36 67/105/36 66/106/36
f 82/107/37 84/108/37 70/109/37 69/110/37
f 84/111/38 85/112/38 71/113/38 70/114/38
f 83/115/39 82/116/39 69/117/39 72/118/39
f 84/119/40 86/120/40 74/121/40 73/122/40
f 85/123/41 84/124/41 73/125/41 76/126/41
f 87/127/42 88/128/42 78/129/42 77/130/42
f 88/131/43 89/132/43 79/133/43 78/134/43
f 90/135/44 87/136/44 77/137/44 80/138/44
f 91/139/30 92/140/30 93/141/30 94/142/30 95/143/30 96/144/30
f 97/145/45 98/146/45 99/147/45 100/148/45
f 101/149/46 102/150/46 103/151/46 104/152/46
f 105/153/47 106/154/47 107/155/47 108/156/47
f 109/157/48 110/158/48 111/159/48 112/160/48
f 113/161/49 97/162/49 100/163/49 114/164/49
f 114/165/50 100/166/50 99/167/50 115/168/50
f 114/169/51 101/170/51 104/171/51 116/172/51
f 116/173/52 104/174/52 103/175/52 117/176/52
f 115/177/53 102/178/53 101/179/53 114/180/53
f 116/181/54 105/182/54 108/183/54 118/184/54
f 117/185/55 106/186/55 105/187/55 116/188/55
f 119/189/56 109/190/56 112/191/56 120/192/56
f 120/193/57 112/194/57 111/195/57 121/196/57
f 122/197/58 110/198/58 109/199/58 119/200/58
f 123/201/59 124/202/59 125/203/59 126/204/59 127/205/59
f 128/206/60 129/207/60 130/208/60
f 131/209/61 132/210/61 130/211/61
f 132/212/62 133/213/62 130/214/62
f 133/213/63 128/215/63 130/214/63
f 134/216/64 135/217/64 136/218/64 137/219/64
f 138/220/65 139/221/65 140/222/65 141/223/65
s 1
f 4/4/66 3/3/66 142/224/67 143/225/68
f 2/226/69 144/227/70 142/228/71 3/229/69
f 145/230/72 144/231/73 2/232/74 1/233/74
f 143/234/75 145/235/76 1/236/77 4/237/77
f 143/238/68 142/239/67 146/240/78 147/241/78
f 142/228/71 144/227/70 148/242/79 146/243/79
f 149/244/80 148/245/80 144/231/73 145/230/72
f 147/246/81 149/247/81 145/235/76 143/234/75
f 150/248/82 151/249/83 152/250/84 153/251/85
f 154/252/86 155/253/86 156/254/87 157/255/88
f 155/256/89 158/257/90 159/258/91 156/259/92
f 158/257/93 150/260/94 153/261/95 159/258/96
f 153/251/85 152/250/84 160/262/97 161/263/98
f 157/255/88 156/254/87 162/264/99 163/265/100
f 156/259/92 159/258/91 164/266/101 162/267/102
f 159/258/96 153/261/95 161/268/103 164/266/104
f 165/269/105 166/270/106 167/271/107 168/272/107
f 169/273/108 170/274/109 171/275/110 172/276/110
f 170/274/111 173/277/112 174/278/113 171/275/113
f 173/279/114 165/280/115 168/281/116 174/282/116
f 168/283/117 167/284/117 175/285/118 176/286/119
f 172/276/120 171/275/120 177/287/121 178/288/122
f 171/289/123 174/282/123 179/290/124 177/291/125
f 174/282/126 168/281/126 176/292/127 179/290/128
f 176/286/119 175/285/118 180/293/129 181/294/130
f 178/288/122 177/287/121 182/295/131 183/296/132
f 177/291/125 179/290/124 184/297/133 182/298/134
f 179/290/128 176/292/127 181/299/135 184/297/136
f 181/300/130 180/301/129 185/302/137 186/303/138
f 183/296/132 182/295/131 6/304/139 5/305/139
f 182/298/134 184/297/133 187/306/140 6/307/141
f 184/297/136 181/299/135 186/308/142 187/306/143
f 186/303/138 185/302/137 188/309/144 189/310/145
f 6/307/141 187/306/140 190/311/146 7/312/147
f 187/306/143 186/308/142 189/313/148 190/311/149
f 189/314/145 188/315/144 191/316/150 14/15/150
f 7/312/147 190/311/146 11/317/151 9/318/151
f 190/311/149 189/313/148 14/319/152 11/317/152
f 14/15/153 191/316/154 192/320/154 15/16/153
f 10/10/155 9/9/156 13/321/156 193/322/155
f 150/260/94 158/257/93 194/323/157 195/324/158
f 158/257/90 155/256/89 196/325/159 194/323/160
f 155/253/161 154/252/162 197/326/162 196/327/161
f 151/249/83 150/248/82 195/328/163 198/329/164
f 195/324/158 194/323/157 199/330/165 200/331/166
f 194/323/160 196/325/159 201/332/167 199/330/168
f 196/327/169 197/326/170 202/333/171 201/334/172
f 198/329/164 195/328/163 200/335/173 203/336/174
f 200/331/166 199/330/165 204/337/175 205/338/176
f 199/330/168 201/332/167 206/339/177 204/337/178
f 201/340/172 202/341/171 207/342/179 206/343/180
f 203/336/174 200/335/173 205/344/181 208/345/182
f 205/338/176 204/337/175 16/346/183 209/347/184
f 204/337/178 206/339/177 17/348/185 16/346/185
f 206/343/180 207/342/179 210/349/186 17/18/186
f 208/345/182 205/344/181 209/350/187 211/351/188
f 209/347/184 16/346/183 19/21/189 212/352/189
f 17/18/190 210/349/191 22/25/191 18/19/190
f 211/351/188 209/350/187 212/353/192 213/354/193
f 161/263/98 160/262/97 166/270/106 165/269/105
f 163/355/100 162/356/99 170/274/109 169/273/108
f 162/267/102 164/266/101 173/279/112 170/357/111
f 164/266/104 161/268/103 165/280/115 173/279/114
f 212/352/194 19/21/194 21/24/195 214/358/196
f 213/359/193 212/360/192 214/361/197 215/362/198
f 216/363/199 25/364/200 217/365/201 218/366/202
f 26/30/203 217/367/201 25/368/200 24/31/204
f 214/358/196 21/24/195 25/29/205 216/369/205
f 215/362/198 214/361/197 216/370/206 218/371/206
f 219/372/207 220/373/208 152/250/209 151/249/210
f 154/252/211 157/255/212 221/374/213 222/375/211
f 222/376/214 221/377/215 223/378/216 224/379/217
f 224/379/218 223/378/219 220/380/220 219/381/221
f 220/373/208 225/382/222 160/262/223 152/250/209
f 157/255/212 163/265/224 226/383/225 221/374/213
f 221/377/215 226/384/226 227/385/227 223/378/216
f 223/378/219 227/385/228 225/386/229 220/380/220
f 228/387/230 229/388/231 167/271/231 166/270/232
f 169/273/233 172/276/234 230/389/234 231/390/235
f 231/390/236 230/389/237 232/391/237 233/392/238
f 233/393/239 232/394/240 229/395/240 228/396/241
f 229/397/242 234/398/243 175/285/244 167/284/242
f 172/276/245 178/288/246 235/399/247 230/389/245
f 230/400/248 235/401/249 236/402/250 232/394/248
f 232/394/251 236/402/252 234/403/253 229/395/251
f 234/398/243 237/404/254 180/293/255 175/285/244
f 178/288/246 183/296/256 238/405/257 235/399/247
f 235/401/249 238/406/258 239/407/259 236/402/250
f 236/402/252 239/407/260 237/408/261 234/403/253
f 237/409/254 240/410/262 185/302/263 180/301/255
f 183/296/256 5/305/264 28/411/264 238/405/257
f 238/406/258 28/412/265 241/413/266 239/407/259
f 239/407/260 241/413/267 240/414/268 237/408/261
f 240/410/262 242/415/269 188/309/270 185/302/263
f 28/412/265 27/416/271 243/417/272 241/413/266
f 241/413/267 243/417/273 242/418/274 240/414/268
f 242/419/269 34/40/275 191/316/275 188/315/270
f 27/416/271 29/420/276 32/421/276 243/417/272
f 243/417/273 32/421/277 34/422/277 242/418/274
f 34/40/278 33/39/278 192/320/154 191/316/154
f 10/10/155 193/322/155 30/423/279 29/34/279
f 219/381/221 244/424/280 245/425/281 224/379/218
f 224/379/217 245/425/282 246/426/283 222/376/214
f 222/375/284 246/427/284 197/326/162 154/252/162
f 151/249/210 198/329/285 244/428/286 219/372/207
f 244/424/280 247/429/287 248/430/288 245/425/281
f 245/425/282 248/430/289 249/431/290 246/426/283
f 246/427/291 249/432/292 202/333/171 197/326/170
f 198/329/285 203/336/293 247/433/294 244/428/286
f 247/429/287 250/434/295 251/435/296 248/430/288
f 248/430/289 251/435/297 252/436/298 249/431/290
f 249/437/292 252/438/299 207/342/300 202/341/171
f 203/336/293 208/345/301 250/439/302 247/433/294
f 250/434/295 253/440/303 35/441/304 251/435/296
f 251/435/297 35/441/305 38/442/305 252/436/298
f 252/438/299 38/44/306 210/349/306 207/342/300
f 208/345/301 211/351/307 253/443/308 250/439/302
f 253/440/303 254/444/309 36/45/309 35/441/304
f 38/44/310 37/43/310 22/25/191 210/349/191
f 211/351/307 213/354/311 254/445/312 253/443/308
f 225/382/222 228/387/230 166/270/232 160/262/223
f 163/355/224 169/273/233 231/390/235 226/446/225
f 226/384/226 231/447/236 233/393/238 227/385/227
f 227/385/228 233/393/239 228/396/241 225/386/229
f 254/444/313 255/448/314 39/46/315 36/45/313
f 213/359/311 215/362/316 255/449/317 254/450/312
f 256/451/318 218/366/202 217/365/201 41/452/319
f 26/30/203 42/52/320 41/453/319 217/367/201
f 255/448/314 256/454/321 41/50/321 39/46/315
f 215/362/316 218/371/322 256/455/322 255/449/317
f 257/456/323 258/457/324 60/458/325 59/459/325
f 258/460/326 259/461/327 61/462/328 60/463/328
f 259/464/329 260/465/330 62/466/331 61/467/331
f 260/465/332 261/468/333 63/469/334 62/466/334
f 261/470/335 262/471/336 64/472/337 63/473/337
f 262/474/338 257/456/339 59/459/340 64/475/340
f 89/476/341 263/477/342 83/478/343 85/479/344 264/480/345 90/481/346
f 257/482/339 262/483/338 265/484/347 266/485/347
f 262/483/336 261/486/335 267/487/348 265/484/348
f 261/486/333 260/488/332 268/489/349 267/487/349
f 260/488/330 259/490/329 269/491/350 268/489/350
f 259/490/327 258/492/326 270/493/351 269/491/351
f 258/492/324 257/482/323 266/485/352 270/493/352
f 266/494/353 265/495/353 271/496/354 272/497/355
f 265/498/356 267/499/356 273/500/357 271/501/358
f 267/502/359 268/503/359 274/504/360 273/505/361
f 268/503/362 269/506/362 275/507/363 274/504/364
f 269/508/365 270/509/365 276/510/366 275/511/367
f 270/512/368 266/494/368 272/497/369 276/513/370
f 88/131/371 81/514/372 263/515/373 89/132/374
f 86/516/375 87/136/376 90/135/377 264/517/378
f 271/518/358 273/519/357 82/100/379 81/99/379
f 273/505/361 274/504/360 84/520/380 82/521/380
f 274/522/364 275/523/363 86/120/381 84/119/381
f 275/523/367 276/524/366 87/127/376 86/120/375
f 276/524/370 272/525/369 88/128/382 87/127/382
f 272/525/355 271/518/354 81/99/372 88/128/371
f 83/478/343 263/477/342 68/526/383 67/527/383
f 263/515/373 81/514/372 65/83/384 68/86/384
f 85/479/344 83/478/343 72/528/385 71/529/385
f 86/516/375 264/517/378 75/93/386 74/92/386
f 264/480/345 85/479/344 76/530/387 75/531/387
f 89/476/341 90/481/346 80/532/388 79/533/388
f 277/534/389 91/535/390 96/536/390 278/537/391
f 278/538/392 96/539/393 95/540/393 279/541/394
f 279/542/395 95/543/396 94/544/396 280/545/397
f 280/545/398 94/544/399 93/546/399 281/547/400
f 281/548/401 93/549/402 92/550/402 282/551/403
f 282/552/404 92/553/405 91/535/405 277/534/406
f 121/554/407 122/555/408 283/556/409 117/557/410 115/558/411 284/559/412
f 277/560/406 285/561/352 286/562/352 282/563/404
f 282/563/403 286/562/351 287/564/351 281/565/401
f 281/565/400 287/564/350 288/566/350 280/567/398
f 280/567/397 288/566/349 289/568/349 279/569/395
f 279/569/394 289/568/348 290/570/348 278/571/392
f 278/571/391 290/570/347 285/561/347 277/560/389
f 285/572/413 291/573/414 292/574/415 286/575/413
f 286/576/416 292/577/417 293/578/418 287/579/416
f 287/580/419 293/581/420 294/582/421 288/583/419
f 288/583/422 294/582/423 295/584/424 289/585/422
f 289/586/425 295/587/426 296/588/427 290/589/425
f 290/590/428 296/591/429 291/573/430 285/572/428
f 120/193/431 121/196/432 284/592/433 113/593/434
f 118/594/435 283/595/436 122/197/437 119/200/438
f 292/596/417 113/161/439 114/164/439 293/597/418
f 293/581/420 114/598/440 116/599/440 294/582/421
f 294/600/423 116/181/441 118/184/441 295/601/424
f 295/601/426 118/184/435 119/189/438 296/602/427
f 296/602/429 119/189/442 120/192/442 291/603/430
f 291/603/414 120/192/431 113/161/434 292/596/415
f 115/558/411 99/604/443 98/605/443 284/559/412
f 284/592/433 98/146/444 97/145/444 113/593/434
f 117/557/410 103/606/445 102/607/445 115/558/411
f 118/594/435 108/156/446 107/155/446 283/595/436
f 283/556/409 107/608/447 106/609/447 117/557/410
f 121/554/407 111/610/448 110/611/448 122/555/408
f 123/612/449 127/613/449 297/614/450 298/615/451
f 127/616/452 126/617/452 299/618/453 297/619/453
f 126/620/454 125/621/454 300/622/455 299/623/456
f 125/624/457 124/625/457 301/626/458 300/627/459
f 124/625/460 123/628/460 298/629/461 301/626/462
f 298/615/451 297/614/450 302/630/463 303/631/464
f 297/619/453 299/618/453 304/632/465 302/633/465
f 299/623/456 300/622/455 305/634/466 304/635/467
f 300/627/459 301/626/458 306/636/468 305/637/469
f 301/626/462 298/629/461 303/638/470 306/636/471
f 303/631/464 302/630/463 129/207/472 128/206/472
f 302/633/465 304/632/465 131/639/473 129/640/473
f 304/635/467 305/634/466 132/210/474 131/209/474
f 305/641/469 306/642/468 133/213/475 132/212/475
f 306/642/471 303/643/470 128/215/476 133/213/476
f 129/640/477 131/639/477 130/644/478
f 307/645/479 308/646/479 309/647/480 310/648/480
f 311/649/481 312/650/481 313/651/482 314/652/482
f 308/653/483 313/654/484 312/655/485 309/656/486
f 310/657/487 311/658/488 314/659/489 307/660/490
f 137/219/491 136/218/491 315/661/492 316/662/492
f 135/663/493 317/664/494 315/665/495 136/666/493
f 318/667/496 317/668/496 135/669/497 134/670/497
f 316/671/498 318/672/499 134/673/500 137/674/500
f 141/223/501 140/222/501 312/675/481 311/676/481
f 309/656/486 312/655/485 140/677/502 139/678/502
f 310/679/480 309/680/480 139/221/503 138/220/503
f 141/681/504 311/658/488 310/657/487 138/682/504
f 316/683/492 315/684/492 308/646/479 307/645/479
f 315/665/495 317/664/494 313/654/484 308/653/483
f 314/652/482 313/651/482 317/668/496 318/667/496
f 307/660/490 314/659/489 318/672/499 316/671/498
