# Blender v3.0.1 OBJ File: ''
# www.blender.org
o Cube.001
v 1.000000 0.000000 0.000000
v 1.000000 1.000000 1.000000
v 1.000000 0.000000 1.000000
v 1.000000 1.000000 0.000000
v 0.000000 1.000000 0.000000
v 0.000000 0.000000 0.000000
v 0.000000 1.000000 1.000000
v 0.000000 0.000000 1.000000
vn -1.0000 -1.0000 -1.0000
vn 1.0000 -1.0000 -1.0000
vn -1.0000 1.0000 -1.0000
vn 1.0000 1.0000 -1.0000
vn -1.0000 -1.0000 1.0000
vn 1.0000 -1.0000 1.0000
vn -1.0000 1.0000 1.0000
vn 1.0000 1.0000 1.0000
vt 1.000000 0.000000
vt 0.000000 1.000000
vt 0.000000 0.000000
vt 1.000000 1.000000
vt 0.000000 1.000000
vt 0.000000 0.000000
vt 1.000000 1.000000
vt 1.000000 0.000000
f 1/1/2 2/2/8 3/3/6
f 1/1/2 4/4/4 2/2/8
f 1/1/2 5/5/3 4/4/4
f 1/1/2 6/6/1 5/5/3
f 4/4/4 7/7/7 2/2/8
f 4/4/4 5/5/3 7/7/7
f 3/3/6 2/2/8 7/7/7
f 3/3/6 7/7/7 8/8/5
f 1/1/2 3/3/6 8/8/5
f 1/1/2 8/8/5 6/6/1
f 6/6/1 8/8/5 7/7/7
f 6/6/1 7/7/7 5/5/3
